<svg width="32" height="54" viewBox="0 0 32 54" fill="none" xmlns="http://www.w3.org/2000/svg">
<path d="M24.4443 27.3891C24.4818 27.9673 24.5695 28.0944 24.7697 28.0944C24.97 28.0944 25.0513 27.9292 25.0513 27.5607C25.0513 27.1921 25.1702 24.2566 25.1702 23.0239C25.1702 22.7761 25.1702 22.5283 24.9637 22.5283C23.64 22.8063 22.2915 22.9447 20.9397 22.9413H14.3249C14.3249 22.5918 14.3249 22.2423 14.3249 21.8992C14.6503 21.6133 14.9507 21.321 15.3012 21.035C15.4046 20.9447 15.5342 20.8912 15.6704 20.8825C17.473 20.8405 19.2637 20.5737 21.0023 20.0883C21.1946 20.0524 21.3931 20.0837 21.5656 20.1772C22.5669 20.6919 23.5619 21.213 24.5444 21.7658C26.0526 22.6109 27.5483 23.4941 29.0565 24.3074C29.3056 24.4062 29.5666 24.4704 29.8326 24.498C30.0453 24.5425 30.2581 24.5743 30.4584 24.6378C30.6586 24.7014 30.9528 24.8284 31.2031 24.9047C31.3361 24.949 31.4798 24.9468 31.6114 24.8985C31.743 24.8501 31.8548 24.7583 31.929 24.6378C32.098 24.4027 31.929 24.1803 31.7976 24.0024C31.3172 23.4131 30.8053 22.851 30.2644 22.3186C29.1191 21.2511 27.9301 20.2281 26.7535 19.186L26.4845 18.9446C26.6897 19.0103 26.8987 19.0634 27.1103 19.1034C27.2292 19.1034 27.4169 19.1034 27.4607 19.0335C27.4905 18.9723 27.506 18.9049 27.506 18.8365C27.506 18.7682 27.4905 18.7008 27.4607 18.6396C27.2044 18.187 26.9046 17.7614 26.5658 17.3687C25.2453 16.0153 23.9124 14.6683 22.5418 13.372C20.6523 11.5918 18.6336 9.95843 16.5027 8.48574C15.3375 7.7198 14.2931 6.77935 13.4049 5.6963C12.8838 5.05032 12.4907 4.30808 12.2472 3.5105C12.0011 2.47862 11.4351 1.55426 10.6326 0.873558C10.1957 0.49822 9.67776 0.232884 9.12085 0.0991337C8.56393 -0.0346166 7.98378 -0.0330043 7.42759 0.10384C6.8714 0.240684 6.35489 0.508894 5.92005 0.886655C5.48522 1.26442 5.14434 1.74106 4.92516 2.27781C4.90251 2.32049 4.88365 2.36515 4.86883 2.41124C4.7072 2.90364 4.4338 3.35055 4.07071 3.71589C3.70762 4.08124 3.26501 4.35478 2.77862 4.51444C2.691 4.55257 2.60965 4.59705 2.52829 4.64153C2.44694 4.686 2.52829 4.64153 2.47823 4.72413C2.56585 4.76526 2.65569 4.80132 2.74732 4.83215C3.47399 4.99646 4.16663 5.28895 4.79374 5.6963C5.12663 5.92026 5.40987 6.21223 5.62537 6.55358C5.84088 6.89493 5.98392 7.27815 6.04537 7.67877C6.33324 9.585 6.62111 11.5421 6.86518 13.4737C6.98091 15.0156 7.49937 16.4983 8.36714 17.7691C9.0142 18.67 9.85541 19.4089 10.8266 19.9294V21.5243C10.6013 21.7213 10.376 21.9183 10.1507 22.1089C9.97683 22.2492 9.77368 22.3473 9.55677 22.3958C9.33985 22.4442 9.1149 22.4417 8.89908 22.3885C8.63369 22.3022 8.34845 22.3017 8.08278 22.387C7.8171 22.4724 7.58408 22.6394 7.4159 22.865H4.23051C2.87875 22.8684 1.53026 22.73 0.20652 22.452C1.13769e-06 22.452 0 22.6998 0 22.9476C0 24.1867 0.118906 27.0333 0.118906 27.4844C0.118906 27.9356 0.244067 28.0182 0.400521 28.0182C0.556974 28.0182 0.688398 27.8911 0.725947 27.3129L0.763494 26.8617C0.926206 25.6227 1.85867 24.6759 5.77001 24.5933L10.8516 24.5107V42.0353C10.8516 45.9939 10.8516 49.2599 10.6451 50.9882C10.6002 51.3739 10.529 51.7561 10.4323 52.1319C10.3388 52.4254 10.1604 52.6835 9.92046 52.8728C9.68051 53.062 9.39005 53.1736 9.08682 53.193C8.49327 53.2769 7.89588 53.3299 7.29699 53.3519C7.05293 53.3519 6.97157 53.479 6.97157 53.5997C6.97157 53.7204 7.17183 53.9301 7.59738 53.9301L12.6039 53.8729C12.8042 53.8729 15.37 54 17.6104 54C18.061 54 18.2362 53.8729 18.2362 53.6696C18.2362 53.4663 18.1549 53.4218 17.9108 53.4218C17.6667 53.4218 17.3163 53.4218 16.922 53.3519H16.872L16.0584 53.2629C15.8385 53.245 15.6251 53.1789 15.4328 53.0692C15.2405 52.9595 15.0739 52.8088 14.9444 52.6275C14.6911 52.0888 14.5383 51.5072 14.4939 50.9119C14.2873 49.1773 14.2873 45.9176 14.2873 41.959C14.2873 41.959 14.3311 26.0166 14.2873 24.5743L19.3564 24.6569C23.2553 24.7395 24.194 25.6862 24.3629 26.9253L24.4443 27.3891Z" fill="#333F48"/>
</svg>
